STARTFONT 2.1
COMMENT This font image translated from Metafont
COMMENT Input file was ``bnr10''
COMMENT DPI was ``180'', usermag ``1000'', blackness ``3''
COMMENT shrink was 1
FONT -*-bengali2-medium-r-*-*-*-180-*-*-*-*-iso10646-1
SIZE 10 180 180
FONTBOUNDINGBOX 45 31 -14 -7
STARTPROPERTIES 5
FONT_ASCENT 24
FONT_DESCENT 4
COPYRIGHT "GNU General Public License"
DEFAULT_CHAR 319
_XMBDFED_INFO "Edited with xmbdfed 4.5."
ENDPROPERTIES
CHARS 249
STARTCHAR C257
ENCODING 257
SWIDTH 480 0
DWIDTH 12 0
BBX 15 25 -2 -2
BITMAP
8000
8000
8000
7FC0
0030
0008
0008
3FFE
0200
0200
07E0
0F10
0E08
0008
0008
0018
0870
0FC0
0200
0180
0040
0020
0010
0008
0004
ENDCHAR
STARTCHAR C258
ENCODING 258
SWIDTH 600 0
DWIDTH 15 0
BBX 17 22 -1 0
BITMAP
800000
400000
3FE000
001800
000400
000200
7FFF80
100000
080000
3E0000
390600
388E00
009C00
00FC00
01C800
038800
060800
3C0800
100800
000800
000400
000400
ENDCHAR
STARTCHAR C259
ENCODING 259
SWIDTH 600 0
DWIDTH 15 0
BBX 18 21 -2 1
BITMAP
800000
800000
7FF000
000C00
000200
000100
3FFFC0
004000
004000
104000
104000
104200
104600
085900
082100
080100
040100
040100
020200
010400
00F800
ENDCHAR
STARTCHAR C260
ENCODING 260
SWIDTH 640 0
DWIDTH 16 0
BBX 18 21 -1 1
BITMAP
800000
400000
3FF000
000C00
000200
000100
7FFFC0
004000
004000
284000
284000
284200
284600
145900
142100
140100
0A0100
0A0100
050200
038C00
00F000
ENDCHAR
STARTCHAR C261
ENCODING 261
SWIDTH 720 0
DWIDTH 18 0
BBX 15 16 1 0
BITMAP
E000
E3A2
E462
78E2
0322
0422
1822
2022
3022
0C22
0232
012A
00A6
0062
0062
0020
ENDCHAR
STARTCHAR C262
ENCODING 262
SWIDTH 640 0
DWIDTH 16 0
BBX 12 16 2 0
BITMAP
01E0
0310
0610
0410
0C10
0F10
8F10
8F10
8710
8010
8010
4010
3FD0
0030
0010
0010
ENDCHAR
STARTCHAR C263
ENCODING 263
SWIDTH 760 0
DWIDTH 19 0
BBX 17 23 1 0
BITMAP
020000
040000
040000
060000
038000
00FC00
000700
00F180
018880
030880
020880
060880
078900
478E00
878800
838800
800800
800800
400800
3FC800
003800
000800
000800
ENDCHAR
STARTCHAR C264
ENCODING 264
SWIDTH 560 0
DWIDTH 14 0
BBX 12 15 1 1
BITMAP
03E0
0E10
9810
9C10
9C30
9DE0
83C0
43C0
41A0
4010
2010
2010
1030
0860
07C0
ENDCHAR
STARTCHAR C270
ENCODING 270
SWIDTH 280 0
DWIDTH 7 0
BBX 8 16 0 0
BITMAP
FF
08
08
10
10
10
10
10
10
10
10
10
10
10
10
60
ENDCHAR
STARTCHAR C271
ENCODING 271
SWIDTH 0 0
DWIDTH 0 0
BBX 12 5 -14 -2
BITMAP
8000
8010
4010
3FF0
0010
ENDCHAR
STARTCHAR C272
ENCODING 272
SWIDTH 600 0
DWIDTH 15 0
BBX 16 18 0 -2
BITMAP
FFFF
0410
0608
0608
0D08
4898
39F0
0388
0788
0708
0018
0430
03E0
0180
0060
0010
000C
0002
ENDCHAR
STARTCHAR C273
ENCODING 273
SWIDTH 640 0
DWIDTH 16 0
BBX 17 16 0 0
BITMAP
FFFF80
020400
030200
070200
048200
4C4600
383C00
000400
000400
000400
0FC400
1E3400
1E0C00
0C0400
000400
000400
ENDCHAR
STARTCHAR C274
ENCODING 274
SWIDTH 1160 0
DWIDTH 29 0
BBX 30 16 0 0
BITMAP
FFF03C3C
0208C320
070500A0
050783A0
0C8C4660
38782C20
00003820
00006020
0000C020
00000020
00000020
00000020
00000020
00000020
00000020
00000020
ENDCHAR
STARTCHAR C275
ENCODING 275
SWIDTH 1160 0
DWIDTH 29 0
BBX 30 16 0 0
BITMAP
FFF03C3C
0208C320
070500A0
050783A0
0C8C4660
38782C20
00003820
00006020
0000C020
000039A0
00004660
00008220
0000F020
00007020
00007020
00000020
ENDCHAR
STARTCHAR C276
ENCODING 276
SWIDTH 1000 0
DWIDTH 25 0
BBX 26 16 0 0
BITMAP
FFFFFFC0
06100000
06080000
05081C00
05081200
2C9C1100
18721100
00021100
00061700
000C1700
00181700
001C1000
00031000
0000D000
00003000
00001000
ENDCHAR
STARTCHAR C277
ENCODING 277
SWIDTH 640 0
DWIDTH 16 0
BBX 17 16 0 0
BITMAP
FFFF80
020400
030200
070200
048200
4C4600
383C00
000C00
003400
01C400
070400
008400
006400
001400
000C00
000400
ENDCHAR
STARTCHAR C278
ENCODING 278
SWIDTH 760 0
DWIDTH 19 0
BBX 20 16 0 0
BITMAP
FFFFF0
020480
030280
070280
048280
4C4680
383C80
000880
000880
003C80
003A80
003980
003980
000080
000080
000080
ENDCHAR
STARTCHAR C279
ENCODING 279
SWIDTH 640 0
DWIDTH 16 0
BBX 17 16 0 0
BITMAP
FFFF80
020400
030200
070200
048200
4C4600
383C00
000400
000400
073400
08CC00
104400
1C0400
1C0400
1C0400
000400
ENDCHAR
STARTCHAR C280
ENCODING 280
SWIDTH 480 0
DWIDTH 12 0
BBX 13 18 0 -2
BITMAP
FFF8
1800
0F00
1C80
3840
0040
00C0
2180
1F00
0400
0300
0080
1E40
31F0
30C0
3040
0040
0040
ENDCHAR
STARTCHAR C281
ENCODING 281
SWIDTH 760 0
DWIDTH 19 0
BBX 20 16 0 0
BITMAP
FFFFF0
001000
001000
007180
0197C0
0617C0
0817C0
101040
301080
081F00
061000
011000
009000
065000
063000
001000
ENDCHAR
STARTCHAR C282
ENCODING 282
SWIDTH 680 0
DWIDTH 17 0
BBX 18 16 0 0
BITMAP
FFFFC0
001000
001000
007000
019C00
061200
081200
301200
301200
081200
061200
011200
009200
065200
063200
001000
ENDCHAR
STARTCHAR C283
ENCODING 283
SWIDTH 560 0
DWIDTH 14 0
BBX 15 18 0 -2
BITMAP
FFFE
0000
1E20
3170
38C8
38C8
3808
0018
0030
00E0
3F80
0800
0600
0180
0060
0010
0008
0004
ENDCHAR
STARTCHAR C284
ENCODING 284
SWIDTH 680 0
DWIDTH 17 0
BBX 18 18 0 -2
BITMAP
FFFFC0
080000
040000
0FC000
1C2C00
181200
001200
001200
003200
20E200
1F8200
0C0200
020200
018200
004200
002200
001800
000400
ENDCHAR
STARTCHAR C285
ENCODING 285
SWIDTH 680 0
DWIDTH 17 0
BBX 14 15 1 1
BITMAP
0F90
1858
B038
BC34
8204
8204
863C
4C78
4078
2034
2004
1004
080C
0618
01F0
ENDCHAR
STARTCHAR C286
ENCODING 286
SWIDTH 720 0
DWIDTH 18 0
BBX 15 15 1 1
BITMAP
F1C0
0B38
8638
8F14
9F84
BF84
BB9C
403C
403C
201A
2002
1002
0806
061C
01F0
ENDCHAR
STARTCHAR C287
ENCODING 287
SWIDTH 640 0
DWIDTH 16 0
BBX 17 16 0 0
BITMAP
FFFF80
180000
080000
1F0000
3CBC00
384200
005E00
00DE00
019E00
3F0000
080000
060000
010000
008000
004000
002000
ENDCHAR
STARTCHAR C288
ENCODING 288
SWIDTH 400 0
DWIDTH 10 0
BBX 0 0 0 0
BITMAP
ENDCHAR
STARTCHAR C289
ENCODING 289
SWIDTH 600 0
DWIDTH 15 0
BBX 3 20 10 -3
BITMAP
C0
C0
C0
C0
C0
C0
C0
C0
C0
C0
C0
C0
C0
C0
00
00
00
E0
E0
E0
ENDCHAR
STARTCHAR C290
ENCODING 290
SWIDTH 440 0
DWIDTH 11 0
BBX 9 9 1 12
BITMAP
6700
F700
F780
7780
1080
1080
2100
2200
4400
ENDCHAR
STARTCHAR C291
ENCODING 291
SWIDTH 560 0
DWIDTH 14 0
BBX 12 19 1 -4
BITMAP
0440
0440
0440
0480
0480
0880
0880
FFF0
0900
0900
FFF0
1100
1100
1200
1200
1200
2200
2200
2000
ENDCHAR
STARTCHAR C292
ENCODING 292
SWIDTH 640 0
DWIDTH 16 0
BBX 13 22 2 -2
BITMAP
0200
0200
0200
0200
0400
0400
0400
0800
0800
0800
1000
11F8
1000
2000
2000
2000
4000
4000
4000
8000
8000
8000
ENDCHAR
STARTCHAR C293
ENCODING 293
SWIDTH 680 0
DWIDTH 17 0
BBX 15 23 1 -2
BITMAP
3000
4C18
4BE8
8410
8410
8420
8420
8440
4840
4880
3080
0100
0118
0224
0224
0442
0442
0842
0842
1042
2024
2024
4018
ENDCHAR
STARTCHAR C294
ENCODING 294
SWIDTH 480 0
DWIDTH 12 0
BBX 11 18 2 -2
BITMAP
7CE0
E280
C280
0280
0680
FC80
2080
1880
0480
0280
0180
0680
1880
3080
0C80
0280
0180
0180
ENDCHAR
STARTCHAR C295
ENCODING 295
SWIDTH 280 0
DWIDTH 7 0
BBX 4 9 2 12
BITMAP
E0
E0
F0
F0
10
10
20
20
40
ENDCHAR
STARTCHAR C296
ENCODING 296
SWIDTH 280 0
DWIDTH 7 0
BBX 5 25 1 -5
BITMAP
08
08
10
30
20
60
60
60
40
C0
C0
C0
C0
C0
C0
C0
C0
40
60
60
20
30
10
08
08
ENDCHAR
STARTCHAR C297
ENCODING 297
SWIDTH 280 0
DWIDTH 7 0
BBX 5 25 1 -5
BITMAP
80
80
40
60
20
30
30
30
10
18
18
18
18
18
18
18
18
10
30
30
20
60
40
80
80
ENDCHAR
STARTCHAR C298
ENCODING 298
SWIDTH 480 0
DWIDTH 12 0
BBX 9 12 2 8
BITMAP
0800
0800
8980
4A00
2C00
1800
3C00
4A00
8900
0800
0800
0800
ENDCHAR
STARTCHAR C299
ENCODING 299
SWIDTH 680 0
DWIDTH 17 0
BBX 15 15 1 0
BITMAP
0100
0100
0100
0100
0100
0100
0100
FFFE
0100
0100
0100
0100
0100
0100
0100
ENDCHAR
STARTCHAR C300
ENCODING 300
SWIDTH 360 0
DWIDTH 9 0
BBX 5 9 3 -5
BITMAP
60
F0
F8
68
08
08
10
20
40
ENDCHAR
STARTCHAR C301
ENCODING 301
SWIDTH 360 0
DWIDTH 9 0
BBX 9 2 0 6
BITMAP
FF80
FF80
ENDCHAR
STARTCHAR C302
ENCODING 302
SWIDTH 480 0
DWIDTH 12 0
BBX 1 16 9 0
BITMAP
80
80
80
80
80
80
80
80
80
80
80
80
80
80
80
80
ENDCHAR
STARTCHAR C303
ENCODING 303
SWIDTH 280 0
DWIDTH 7 0
BBX 5 18 1 -3
BITMAP
08
08
08
08
10
10
10
20
20
20
20
40
40
40
80
80
80
80
ENDCHAR
STARTCHAR C304
ENCODING 304
SWIDTH 520 0
DWIDTH 13 0
BBX 11 11 1 2
BITMAP
3F00
6080
C040
8020
8020
8020
8020
8020
4060
20C0
1F80
ENDCHAR
STARTCHAR C305
ENCODING 305
SWIDTH 520 0
DWIDTH 13 0
BBX 9 14 2 1
BITMAP
C000
8000
8000
4000
3000
0C00
0200
0100
0080
0080
0080
1F80
3F00
3E00
ENDCHAR
STARTCHAR C306
ENCODING 306
SWIDTH 520 0
DWIDTH 13 0
BBX 10 16 2 -1
BITMAP
8000
4000
3000
0C00
0300
0080
0080
0100
FE00
6000
3000
0800
0600
0300
0080
0040
ENDCHAR
STARTCHAR C307
ENCODING 307
SWIDTH 520 0
DWIDTH 13 0
BBX 11 11 1 2
BITMAP
8000
8000
8780
8F40
8F20
4620
4020
2020
2020
1040
0F80
ENDCHAR
STARTCHAR C308
ENCODING 308
SWIDTH 520 0
DWIDTH 13 0
BBX 9 16 2 0
BITMAP
3E00
4300
8180
8080
8080
C080
6100
3E00
3E00
4300
8180
8080
8080
C080
6100
3E00
ENDCHAR
STARTCHAR C309
ENCODING 309
SWIDTH 520 0
DWIDTH 13 0
BBX 11 16 1 0
BITMAP
0400
0C00
1C00
3200
61E0
4060
C0C0
8180
8100
8300
8200
4200
4200
2200
1900
0780
ENDCHAR
STARTCHAR C310
ENCODING 310
SWIDTH 520 0
DWIDTH 13 0
BBX 11 13 1 1
BITMAP
0800
8800
8400
8400
84C0
8520
4620
4020
4020
2020
2040
1080
0F00
ENDCHAR
STARTCHAR C311
ENCODING 311
SWIDTH 520 0
DWIDTH 13 0
BBX 9 16 2 0
BITMAP
3C00
6200
C200
8100
8100
8100
7F00
0100
0100
0100
0100
0100
0100
0100
0080
0080
ENDCHAR
STARTCHAR C312
ENCODING 312
SWIDTH 520 0
DWIDTH 13 0
BBX 11 15 1 1
BITMAP
8000
4000
4000
4000
4000
4000
5060
6F80
4100
4100
4100
4200
4200
4400
3800
ENDCHAR
STARTCHAR C313
ENCODING 313
SWIDTH 520 0
DWIDTH 13 0
BBX 10 15 2 0
BITMAP
8000
8000
C000
6000
3800
0C00
0700
0180
00C0
7840
8C40
8640
E240
E280
E300
ENDCHAR
STARTCHAR C314
ENCODING 314
SWIDTH 400 0
DWIDTH 10 0
BBX 4 13 4 1
BITMAP
60
F0
F0
60
00
00
00
00
00
60
F0
F0
60
ENDCHAR
STARTCHAR C315
ENCODING 315
SWIDTH 360 0
DWIDTH 9 0
BBX 5 14 3 -5
BITMAP
60
F0
F0
60
00
60
F0
F8
68
08
08
10
20
40
ENDCHAR
STARTCHAR C316
ENCODING 316
SWIDTH 760 0
DWIDTH 19 0
BBX 7 16 10 0
BITMAP
82
82
82
82
82
82
82
82
82
82
82
82
82
82
82
82
ENDCHAR
STARTCHAR C317
ENCODING 317
SWIDTH 680 0
DWIDTH 17 0
BBX 15 6 1 4
BITMAP
FFFE
0000
0000
0000
0000
FFFE
ENDCHAR
STARTCHAR C318
ENCODING 318
SWIDTH 480 0
DWIDTH 12 0
BBX 13 18 0 -2
BITMAP
FFF8
1800
0F00
1C80
3840
0040
00C0
2180
1F00
0400
0300
0080
00C0
0770
0C40
0240
01C0
00C0
ENDCHAR
STARTCHAR C319
ENCODING 319
SWIDTH 800 0
DWIDTH 20 0
BBX 10 19 9 -2
BITMAP
1F00
2080
F040
F040
F040
0040
0080
0100
0200
0400
0400
0800
0800
0000
0000
0C00
1E00
1E00
0C00
ENDCHAR
STARTCHAR C320
ENCODING 320
SWIDTH 640 0
DWIDTH 16 0
BBX 17 18 0 -2
BITMAP
FFFF80
010000
010000
018000
7D8000
738600
719A00
01E400
018400
008400
000400
001C00
006400
00C400
003400
000C00
000400
000400
ENDCHAR
STARTCHAR C321
ENCODING 321
SWIDTH 280 0
DWIDTH 7 0
BBX 8 16 0 0
BITMAP
9F
50
30
10
10
10
10
10
10
10
10
10
10
10
10
10
ENDCHAR
STARTCHAR C322
ENCODING 322
SWIDTH 520 0
DWIDTH 13 0
BBX 11 16 1 0
BITMAP
1E00
2100
6100
9100
8E00
8000
8000
4000
2000
1800
0400
0300
0080
0040
0020
0020
ENDCHAR
STARTCHAR C323
ENCODING 323
SWIDTH 560 0
DWIDTH 14 0
BBX 15 18 0 -2
BITMAP
FFFE
2000
2000
3000
2FC0
2120
2310
2610
3C10
0030
00E0
3F80
0300
00C0
0020
0010
0008
0004
ENDCHAR
STARTCHAR C324
ENCODING 324
SWIDTH 600 0
DWIDTH 15 0
BBX 16 15 0 1
BITMAP
FFFF
0100
0100
4100
4100
4108
4118
2164
2084
2004
1004
1004
0808
0410
03E0
ENDCHAR
STARTCHAR C325
ENCODING 325
SWIDTH 320 0
DWIDTH 8 0
BBX 12 23 -3 -1
BITMAP
8000
8000
7C00
0380
0040
0020
1FF0
0040
0080
0100
0100
0200
0200
0400
0400
0400
0400
0400
0400
0200
0270
01F0
0060
ENDCHAR
STARTCHAR C326
ENCODING 326
SWIDTH 560 0
DWIDTH 14 0
BBX 15 16 0 0
BITMAP
FFFE
C010
3010
0C10
0210
0310
0ED0
1830
3010
3810
0610
0190
0050
0030
0010
0010
ENDCHAR
STARTCHAR C327
ENCODING 327
SWIDTH 560 0
DWIDTH 14 0
BBX 15 16 0 0
BITMAP
FFFE
2010
6010
4010
4010
2310
1F10
0610
0C10
1810
0610
0190
0050
0030
0010
0010
ENDCHAR
STARTCHAR C328
ENCODING 328
SWIDTH 360 0
DWIDTH 9 0
BBX 5 14 2 2
BITMAP
70
88
88
88
88
70
00
00
00
70
88
88
88
70
ENDCHAR
STARTCHAR C329
ENCODING 329
SWIDTH 240 0
DWIDTH 6 0
BBX 18 23 -11 0
BITMAP
3FC000
403000
800800
800400
400400
3F8200
004200
004FC0
000200
000200
000200
000200
000200
000200
000200
000200
000200
000200
000200
000200
000200
000200
000200
ENDCHAR
STARTCHAR C330
ENCODING 330
SWIDTH 680 0
DWIDTH 17 0
BBX 18 16 0 0
BITMAP
FFE3C0
002200
002200
00E200
032200
042200
082200
102200
302200
0C2200
023200
012A00
00A600
006200
006200
002000
ENDCHAR
STARTCHAR C331
ENCODING 331
SWIDTH 600 0
DWIDTH 15 0
BBX 15 16 1 0
BITMAP
021E
0710
EC90
F850
E050
00D0
0190
0F10
3810
0C10
0310
0090
0050
0030
0030
0010
ENDCHAR
STARTCHAR C332
ENCODING 332
SWIDTH 760 0
DWIDTH 19 0
BBX 20 16 0 0
BITMAP
FFFFF0
200400
100400
3E0400
798F00
78F480
308480
008480
008480
078480
07E480
071480
000C80
000480
000480
000400
ENDCHAR
STARTCHAR C333
ENCODING 333
SWIDTH 400 0
DWIDTH 10 0
BBX 7 15 2 1
BITMAP
78
84
84
84
84
78
00
40
60
30
10
08
04
04
02
ENDCHAR
STARTCHAR C334
ENCODING 334
SWIDTH 520 0
DWIDTH 13 0
BBX 13 16 1 0
BITMAP
3C78
6340
C140
80C0
8040
9840
5840
3840
0040
0040
0040
0040
0040
0040
0040
0040
ENDCHAR
STARTCHAR C335
ENCODING 335
SWIDTH 240 0
DWIDTH 6 0
BBX 18 22 -11 0
BITMAP
800000
800000
7FE000
001C00
000200
000200
000FC0
000200
000200
000200
000200
000200
000200
000200
000200
000200
000200
000200
000200
000200
000200
000200
ENDCHAR
STARTCHAR C336
ENCODING 336
SWIDTH 800 0
DWIDTH 20 0
BBX 18 16 1 0
BITMAP
382000
442700
E22880
E23040
E22040
042340
082380
302340
702040
0C3040
022880
012700
00A000
00A000
006000
006000
ENDCHAR
STARTCHAR C337
ENCODING 337
SWIDTH 880 0
DWIDTH 22 0
BBX 20 16 1 0
BITMAP
00F000
018800
030800
0209E0
060A30
070C10
478810
8788E0
8308E0
8008D0
800810
400C10
3FCA30
0039E0
000800
000800
ENDCHAR
STARTCHAR C338
ENCODING 338
SWIDTH 600 0
DWIDTH 15 0
BBX 16 19 0 -3
BITMAP
FFFF
0100
0100
4100
4100
4108
4118
2164
2084
2004
1004
1004
0808
0410
03E0
0000
0000
01C0
01C0
ENDCHAR
STARTCHAR C339
ENCODING 339
SWIDTH 560 0
DWIDTH 14 0
BBX 15 16 0 0
BITMAP
C01E
2390
1650
1C30
3E10
7F10
7F10
7710
0010
0010
0010
0010
0010
0010
0010
0010
ENDCHAR
STARTCHAR C340
ENCODING 340
SWIDTH 480 0
DWIDTH 12 0
BBX 15 22 -2 1
BITMAP
8000
8000
8000
7FC0
0030
0008
0008
3FFE
0800
0800
0800
0800
0800
0870
0878
0878
0818
0810
0830
0860
09C0
0700
ENDCHAR
STARTCHAR C341
ENCODING 341
SWIDTH 0 0
DWIDTH 0 0
BBX 11 8 -7 -7
BITMAP
3800
4000
8000
8000
7C00
0300
0080
0060
ENDCHAR
STARTCHAR C342
ENCODING 342
SWIDTH 480 0
DWIDTH 12 0
BBX 13 19 0 -3
BITMAP
FFF8
2000
2000
2000
2000
2000
21C0
21E0
21E0
2060
2040
20C0
2180
2700
1C00
0000
0000
1C00
1C00
ENDCHAR
STARTCHAR C343
ENCODING 343
SWIDTH 0 0
DWIDTH 0 0
BBX 5 6 -5 -5
BITMAP
20
60
C0
80
60
18
ENDCHAR
STARTCHAR C344
ENCODING 344
SWIDTH 480 0
DWIDTH 12 0
BBX 13 15 0 1
BITMAP
FFF8
2000
2000
2000
2000
2000
21C0
21E0
21E0
2060
2040
20C0
2180
2700
1C00
ENDCHAR
STARTCHAR C345
ENCODING 345
SWIDTH 560 0
DWIDTH 14 0
BBX 15 16 0 0
BITMAP
FFFE
C010
3010
0C10
0210
0310
0E10
1810
3010
3810
0610
0190
0050
0030
0010
0010
ENDCHAR
STARTCHAR C346
ENCODING 346
SWIDTH 480 0
DWIDTH 12 0
BBX 13 23 0 1
BITMAP
0800
0800
0800
0800
0400
0400
0200
0200
FFF8
0300
0180
0180
0340
0240
0220
0620
0420
0C20
1860
3040
20C0
1180
0F00
ENDCHAR
STARTCHAR C347
ENCODING 347
SWIDTH 200 0
DWIDTH 5 0
BBX 5 26 1 -5
BITMAP
F8
F8
C0
C0
C0
C0
C0
C0
C0
C0
C0
C0
C0
C0
C0
C0
C0
C0
C0
C0
C0
C0
C0
C0
F8
F8
ENDCHAR
STARTCHAR C348
ENCODING 348
SWIDTH 440 0
DWIDTH 11 0
BBX 9 9 1 11
BITMAP
2100
2200
4200
8400
8400
F700
F780
7780
7300
ENDCHAR
STARTCHAR C349
ENCODING 349
SWIDTH 200 0
DWIDTH 5 0
BBX 4 26 0 -5
BITMAP
F0
F0
F0
30
30
30
30
30
30
30
30
30
30
30
30
30
30
30
30
30
30
30
30
30
F0
F0
ENDCHAR
STARTCHAR C350
ENCODING 350
SWIDTH 0 0
DWIDTH 0 0
BBX 10 7 -4 16
BITMAP
0040
0180
0300
0C00
1800
7000
C000
ENDCHAR
STARTCHAR C351
ENCODING 351
SWIDTH 0 0
DWIDTH 0 0
BBX 6 5 -3 -7
BITMAP
80
60
10
08
04
ENDCHAR
STARTCHAR C352
ENCODING 352
SWIDTH 280 0
DWIDTH 7 0
BBX 4 9 1 11
BITMAP
20
40
40
80
80
F0
F0
70
70
ENDCHAR
STARTCHAR C353
ENCODING 353
SWIDTH 800 0
DWIDTH 20 0
BBX 21 16 0 0
BITMAP
FFFFF8
040040
020040
43F040
238840
238440
138240
100240
080240
080240
040240
020640
018940
0070C0
000040
000040
ENDCHAR
STARTCHAR C354
ENCODING 354
SWIDTH 520 0
DWIDTH 13 0
BBX 14 16 0 0
BITMAP
FFFC
0020
0020
00E0
03A0
0620
1820
2020
6020
1820
0620
0120
00A0
0060
0020
0020
ENDCHAR
STARTCHAR C355
ENCODING 355
SWIDTH 480 0
DWIDTH 12 0
BBX 13 15 0 1
BITMAP
FFF8
2000
2000
3000
2800
2600
21E0
2020
2020
2060
2040
20C0
2180
2700
1C00
ENDCHAR
STARTCHAR C356
ENCODING 356
SWIDTH 480 0
DWIDTH 12 0
BBX 13 16 0 0
BITMAP
FFF8
2000
2000
2000
2060
21C0
2240
2C40
3080
2080
0080
0080
0080
0080
0080
0080
ENDCHAR
STARTCHAR C357
ENCODING 357
SWIDTH 320 0
DWIDTH 8 0
BBX 9 17 0 -1
BITMAP
FF80
0200
0400
0800
0800
1000
1000
2000
2000
2000
2000
2000
2000
1000
1380
0F80
0300
ENDCHAR
STARTCHAR C358
ENCODING 358
SWIDTH 680 0
DWIDTH 17 0
BBX 18 16 0 0
BITMAP
FFFFC0
600000
100000
0C1C00
021200
021100
061100
0C1F00
181F00
381E00
061000
011000
009000
005000
003000
003000
ENDCHAR
STARTCHAR C359
ENCODING 359
SWIDTH 560 0
DWIDTH 14 0
BBX 14 16 1 0
BITMAP
003C
3F20
60A0
C060
FC20
C220
0220
0220
0620
0C20
1820
0020
0020
0020
0020
0020
ENDCHAR
STARTCHAR C360
ENCODING 360
SWIDTH 480 0
DWIDTH 12 0
BBX 13 18 0 -2
BITMAP
FFF8
0800
0800
1F80
3C40
3820
0020
0020
0060
21C0
3F00
0800
0600
0100
0080
0040
0020
0010
ENDCHAR
STARTCHAR C361
ENCODING 361
SWIDTH 280 0
DWIDTH 7 0
BBX 17 23 0 0
BITMAP
0FC000
383000
600C00
400200
400100
400080
400000
FF0000
100000
100000
100000
100000
100000
100000
100000
100000
100000
100000
100000
100000
100000
100000
100000
ENDCHAR
STARTCHAR C362
ENCODING 362
SWIDTH 680 0
DWIDTH 17 0
BBX 18 16 0 0
BITMAP
FFFFC0
020000
060000
450000
48FE00
480200
480400
28E400
271400
101400
101400
081400
042200
03C200
000200
000200
ENDCHAR
STARTCHAR C363
ENCODING 363
SWIDTH 680 0
DWIDTH 17 0
BBX 18 16 0 0
BITMAP
FFFFC0
002000
002000
007C00
01A600
062300
082100
302100
302F00
082F00
062E00
012000
00A000
006000
002000
002000
ENDCHAR
STARTCHAR C364
ENCODING 364
SWIDTH 600 0
DWIDTH 15 0
BBX 16 16 0 0
BITMAP
FFFF
0008
0008
0008
1E68
2198
4088
4088
4E08
2E08
1E08
0008
0008
0008
0008
0008
ENDCHAR
STARTCHAR C365
ENCODING 365
SWIDTH 560 0
DWIDTH 14 0
BBX 15 16 0 0
BITMAP
FFFE
6010
4010
4010
2010
1010
0810
0410
0210
0E10
1F10
1ED0
0C30
0010
0010
0010
ENDCHAR
STARTCHAR C366
ENCODING 366
SWIDTH 520 0
DWIDTH 13 0
BBX 14 16 0 0
BITMAP
FFFC
0020
0020
0020
0020
0020
0020
3E20
3920
38A0
3860
0060
0020
0020
0020
0020
ENDCHAR
STARTCHAR C367
ENCODING 367
SWIDTH 680 0
DWIDTH 17 0
BBX 15 22 1 1
BITMAP
0400
0800
0800
0C00
0700
01F8
000C
03E6
0E12
980A
9C0A
9C1C
80F8
81F0
41E0
40D0
4008
2008
2008
1018
0C30
03E0
ENDCHAR
STARTCHAR C368
ENCODING 368
SWIDTH 600 0
DWIDTH 15 0
BBX 15 16 1 0
BITMAP
001E
1F10
6090
E0D0
11B0
0B10
0E10
1C10
1010
0010
0010
0010
0010
0010
0010
0010
ENDCHAR
STARTCHAR C369
ENCODING 369
SWIDTH 600 0
DWIDTH 15 0
BBX 13 16 1 1
BITMAP
01C0
0320
2220
9660
8FC0
8400
8400
8430
44E8
4388
4008
2008
2008
1018
0C30
03E0
ENDCHAR
STARTCHAR C370
ENCODING 370
SWIDTH 520 0
DWIDTH 13 0
BBX 14 16 0 0
BITMAP
FFFC
0020
0020
00E0
03A0
0620
1820
2020
6020
1820
0620
0120
00A0
0060
0E20
0E20
ENDCHAR
STARTCHAR C371
ENCODING 371
SWIDTH 600 0
DWIDTH 15 0
BBX 16 16 0 0
BITMAP
FFFF
7008
0808
0408
0208
0208
01E8
0198
0308
2608
1C08
0008
0008
0008
0008
0008
ENDCHAR
STARTCHAR C372
ENCODING 372
SWIDTH 600 0
DWIDTH 15 0
BBX 16 15 0 1
BITMAP
FFFF
0000
0000
4000
41E0
43D0
43C8
2184
2004
1004
1004
0808
0408
0210
01E0
ENDCHAR
STARTCHAR C373
ENCODING 373
SWIDTH 0 0
DWIDTH 0 0
BBX 10 7 -7 -7
BITMAP
7800
8800
8C00
7200
0100
0080
0040
ENDCHAR
STARTCHAR C374
ENCODING 374
SWIDTH 640 0
DWIDTH 16 0
BBX 17 15 0 1
BITMAP
FFFF80
000000
000000
400000
430000
478800
478C00
431C00
21F200
200200
100200
100200
080600
061C00
01F000
ENDCHAR
STARTCHAR C375
ENCODING 375
SWIDTH 0 0
DWIDTH 0 0
BBX 9 6 -7 17
BITMAP
1C00
9C80
8080
8080
4100
3E00
ENDCHAR
STARTCHAR C376
ENCODING 376
SWIDTH 520 0
DWIDTH 13 0
BBX 12 16 2 0
BITMAP
30F0
7080
7080
4180
3E80
1880
2080
C080
C080
2080
1880
0480
0280
0180
0080
0080
ENDCHAR
STARTCHAR C377
ENCODING 377
SWIDTH 560 0
DWIDTH 14 0
BBX 15 16 0 0
BITMAP
FFFE
C010
3010
0C10
0210
0310
0E10
1810
3010
3810
0610
0190
0050
0030
0710
0710
ENDCHAR
STARTCHAR C378
ENCODING 378
SWIDTH 560 0
DWIDTH 14 0
BBX 13 16 2 0
BITMAP
3878
4440
C240
C240
C240
0440
0840
3040
E040
1840
0640
0140
00C0
0040
0040
0040
ENDCHAR
STARTCHAR C379
ENCODING 379
SWIDTH 600 0
DWIDTH 15 0
BBX 16 1 0 7
BITMAP
FFFF
ENDCHAR
STARTCHAR C380
ENCODING 380
SWIDTH 1080 0
DWIDTH 27 0
BBX 28 1 0 7
BITMAP
FFFFFFF0
ENDCHAR
STARTCHAR C381
ENCODING 381
SWIDTH 480 0
DWIDTH 12 0
BBX 13 18 0 -2
BITMAP
FFF8
1800
0F00
1C80
3840
0040
00C0
2180
1F00
0400
0300
0080
1DC0
2270
3A40
3840
3840
0040
ENDCHAR
STARTCHAR C382
ENCODING 382
SWIDTH 640 0
DWIDTH 16 0
BBX 14 5 1 5
BITMAP
3C00
7E04
C30C
81F8
00F0
ENDCHAR
STARTCHAR C383
ENCODING 383
SWIDTH 960 0
DWIDTH 24 0
BBX 25 19 0 -3
BITMAP
FFFC0780
0103E400
01061400
010C0C00
010E0400
01190400
01388400
01488400
20858400
20050400
20040400
10040400
08080400
04100400
03E00400
00000400
00C00000
00C00000
00C00000
ENDCHAR
STARTCHAR C384
ENCODING 384
SWIDTH 680 0
DWIDTH 17 0
BBX 18 16 0 0
BITMAP
FFFFC0
002000
007800
01A400
062200
182700
202700
10FF00
0B2400
042200
0C2200
032E00
00AE00
006E00
002000
002000
ENDCHAR
STARTCHAR C385
ENCODING 385
SWIDTH 560 0
DWIDTH 14 0
BBX 15 23 0 -1
BITMAP
8000
6000
1F80
0060
0010
0008
FFFE
0080
01C0
06A0
1890
20F0
18F0
04F0
0280
0180
03F0
0670
0C70
0810
0830
0460
03C0
ENDCHAR
STARTCHAR C386
ENCODING 386
SWIDTH 760 0
DWIDTH 19 0
BBX 20 15 0 1
BITMAP
FFFFF0
000000
01F000
070800
4C0F00
5C1880
5C11C0
3CF3C0
20E3C0
20F180
100800
100800
081800
043000
03E000
ENDCHAR
STARTCHAR C387
ENCODING 387
SWIDTH 680 0
DWIDTH 17 0
BBX 18 16 0 0
BITMAP
FFFFC0
002000
007800
01A400
062200
182100
202100
10E700
0B2700
042000
0C2000
032000
00A000
006000
002000
002000
ENDCHAR
STARTCHAR C388
ENCODING 388
SWIDTH 680 0
DWIDTH 17 0
BBX 18 16 0 0
BITMAP
FFFFC0
008200
01C200
0EA200
309200
709200
0CB200
02B200
018200
008200
01E200
01DA00
01C600
01C200
000200
000200
ENDCHAR
STARTCHAR C389
ENCODING 389
SWIDTH 840 0
DWIDTH 21 0
BBX 22 16 0 0
BITMAP
FFFFFC
000000
00F800
018400
0305C0
020620
238470
43C4F0
43C4F0
418460
400400
400400
200400
180400
07FC00
000400
ENDCHAR
STARTCHAR C390
ENCODING 390
SWIDTH 640 0
DWIDTH 16 0
BBX 17 16 0 0
BITMAP
FFFF80
002000
007800
01A400
062400
0C2200
032E00
00AE00
006000
002000
3C2000
43A000
7A6000
782000
382000
002000
ENDCHAR
STARTCHAR C391
ENCODING 391
SWIDTH 800 0
DWIDTH 20 0
BBX 21 16 0 0
BITMAP
FFFFF8
208800
108800
3C8800
7B4E00
78B980
308840
008840
0089E0
0789C0
07C9C0
072800
001800
000800
000800
000800
ENDCHAR
STARTCHAR C392
ENCODING 392
SWIDTH 760 0
DWIDTH 19 0
BBX 20 18 0 -2
BITMAP
FFFFF0
209000
109000
7C9000
7A7F00
791080
011080
0113C0
071380
079380
075000
073000
079000
0E5000
0E3000
0E3000
001000
001000
ENDCHAR
STARTCHAR C393
ENCODING 393
SWIDTH 840 0
DWIDTH 21 0
BBX 22 20 0 -4
BITMAP
FFFFFC
208820
108820
7C8820
7A7F20
7908A0
010860
010BE0
070BE0
07CBA0
072820
071820
001820
007C20
00FB20
00F0A0
006060
000020
000020
000020
ENDCHAR
STARTCHAR C394
ENCODING 394
SWIDTH 680 0
DWIDTH 17 0
BBX 18 16 0 0
BITMAP
FFFFC0
008200
01C200
06A200
189200
30F200
0CF200
02F200
018200
01FA00
00C600
118200
0F0200
000200
000200
000200
ENDCHAR
STARTCHAR C395
ENCODING 395
SWIDTH 640 0
DWIDTH 16 0
BBX 15 16 2 0
BITMAP
3C7E
6240
C140
C0C0
F040
0840
0840
1840
1070
01D0
0650
0C50
0250
0150
00D0
00D0
ENDCHAR
STARTCHAR C396
ENCODING 396
SWIDTH 560 0
DWIDTH 14 0
BBX 14 16 1 0
BITMAP
3F3C
60A0
C060
F060
8820
0420
0420
0C20
0820
0020
3F20
78A0
7860
3020
0020
0020
ENDCHAR
STARTCHAR C397
ENCODING 397
SWIDTH 560 0
DWIDTH 14 0
BBX 14 16 1 0
BITMAP
3F3C
60A0
C060
F060
8820
0420
0420
0C20
0820
00E0
0320
0620
0120
00A0
0060
0020
ENDCHAR
STARTCHAR C398
ENCODING 398
SWIDTH 680 0
DWIDTH 17 0
BBX 17 16 1 0
BITMAP
3E3F80
612400
C0A400
E06400
902400
082400
082400
182400
002400
002400
00E400
00F400
00EC00
00E400
000400
000400
ENDCHAR
STARTCHAR C399
ENCODING 399
SWIDTH 600 0
DWIDTH 15 0
BBX 14 16 2 0
BITMAP
3F3C
60A0
C060
F060
8820
0420
0420
0C20
0820
0020
7DA0
8260
E220
E020
E020
0020
ENDCHAR
STARTCHAR C400
ENCODING 400
SWIDTH 520 0
DWIDTH 13 0
BBX 14 18 0 -2
BITMAP
FFFC
3020
2020
2020
2320
1E20
0C20
1820
1820
0620
01A0
0660
1FA0
1E60
1E60
0020
0020
0020
ENDCHAR
STARTCHAR C401
ENCODING 401
SWIDTH 600 0
DWIDTH 15 0
BBX 16 16 0 0
BITMAP
FFFF
0082
0042
7E3C
7900
7880
0040
00F0
0348
0C44
1044
0C5C
025C
015C
00C0
0040
ENDCHAR
STARTCHAR C402
ENCODING 402
SWIDTH 1200 0
DWIDTH 30 0
BBX 29 17 2 0
BITMAP
07000000
0CFFFFF8
48908800
29908800
9F3E8800
88394E00
88F8B980
89B88840
47208820
402089E0
402789C0
2067C9C0
10C7A800
0F801800
00001800
00000800
00000800
ENDCHAR
STARTCHAR C403
ENCODING 403
SWIDTH 800 0
DWIDTH 20 0
BBX 21 17 0 0
BITMAP
01C000
E32078
122040
2A6040
27C040
222040
227040
13DC40
101440
083240
046240
03C440
000840
000C40
000340
0000C0
000040
ENDCHAR
STARTCHAR C404
ENCODING 404
SWIDTH 560 0
DWIDTH 14 0
BBX 15 16 0 0
BITMAP
FFFE
6208
1110
7CE0
7218
7138
01F0
01B0
0320
0620
0C20
7820
2020
0020
0010
0010
ENDCHAR
STARTCHAR C405
ENCODING 405
SWIDTH 880 0
DWIDTH 22 0
BBX 22 17 1 0
BITMAP
038000
467FFC
247020
9CE020
8FA020
482020
48E320
49BE20
472C20
203820
203820
106620
08C120
0780A0
000060
000020
000020
ENDCHAR
STARTCHAR C406
ENCODING 406
SWIDTH 640 0
DWIDTH 16 0
BBX 16 17 1 0
BITMAP
0780
4C7F
2848
98C8
8F88
4848
49C8
4728
2028
2068
10C8
0F88
03C8
03A8
0398
0388
0008
ENDCHAR
STARTCHAR C407
ENCODING 407
SWIDTH 760 0
DWIDTH 19 0
BBX 20 16 0 0
BITMAP
FFFFF0
204000
204000
304000
2E6000
21D800
20C700
20C080
21C080
234080
2E4180
184100
004300
004600
004C00
003800
ENDCHAR
STARTCHAR C408
ENCODING 408
SWIDTH 760 0
DWIDTH 19 0
BBX 20 16 0 0
BITMAP
FFFFF0
204000
204000
306000
2E5F00
21CC80
20C880
20D880
21F180
230700
2E3C00
181000
000C00
000200
000100
000080
ENDCHAR
STARTCHAR C409
ENCODING 409
SWIDTH 720 0
DWIDTH 18 0
BBX 19 19 0 -3
BITMAP
FFFFE0
208000
208000
30E000
2E9E00
218900
219900
23F100
260300
2C0E00
187800
000800
000400
000200
001F00
003200
000A00
000600
000200
ENDCHAR
STARTCHAR C410
ENCODING 410
SWIDTH 640 0
DWIDTH 16 0
BBX 17 16 0 0
BITMAP
FFFF80
100000
100000
1E0000
118000
118000
130000
179C00
0C6200
284E00
2E4C00
264E00
206200
205C00
1FC000
004000
ENDCHAR
STARTCHAR C411
ENCODING 411
SWIDTH 960 0
DWIDTH 24 0
BBX 25 16 0 0
BITMAP
FFFFFF80
04000000
0A000000
51820000
507E0000
51860000
2E49CC00
20483400
10484800
0FA7C800
00202800
00102800
000C4800
00038800
00000800
00000800
ENDCHAR
STARTCHAR C412
ENCODING 412
SWIDTH 960 0
DWIDTH 24 0
BBX 25 19 0 -3
BITMAP
FFFFFF80
04000000
0A000000
51820000
507E0000
51860000
2E498400
20487C00
10484400
0FA7C400
00202400
00102400
000C4400
00038C00
00003400
00004400
0000C400
00003400
00000C00
ENDCHAR
STARTCHAR C413
ENCODING 413
SWIDTH 1200 0
DWIDTH 30 0
BBX 31 16 0 0
BITMAP
FFFFFF1E
01000110
03000110
04800310
28760D10
280A3110
28024110
28648110
17A58110
10146110
10141190
08140950
04240550
03C40330
00040110
00020110
ENDCHAR
STARTCHAR C414
ENCODING 414
SWIDTH 760 0
DWIDTH 19 0
BBX 20 14 0 2
BITMAP
FFFFF0
010000
028000
048000
484380
484C40
483040
486380
27B380
201040
201C40
101380
0C2000
03C000
ENDCHAR
STARTCHAR C415
ENCODING 415
SWIDTH 720 0
DWIDTH 18 0
BBX 19 19 0 -3
BITMAP
FFFFE0
030000
050000
048000
486000
481F00
480100
486100
27A200
201200
201200
101200
0C2E00
03D200
006200
006200
001A00
000600
000300
ENDCHAR
STARTCHAR C417
ENCODING 417
SWIDTH 600 0
DWIDTH 15 0
BBX 13 21 1 -4
BITMAP
00F0
7908
E608
E478
E470
0C78
3A08
6108
C0F0
8380
8640
7C40
00C0
0780
FC00
0C00
0300
00C0
0020
0010
0008
ENDCHAR
STARTCHAR C418
ENCODING 418
SWIDTH 680 0
DWIDTH 17 0
BBX 14 17 1 0
BITMAP
0078
1C84
2304
721C
721C
761C
0904
1084
907C
9008
4FC8
4028
2028
1848
0788
0008
0008
ENDCHAR
STARTCHAR C419
ENCODING 419
SWIDTH 600 0
DWIDTH 15 0
BBX 13 16 1 0
BITMAP
0E70
1988
1108
5930
9938
8188
4170
3F00
0140
0740
1940
2140
1940
05C0
0340
0140
ENDCHAR
STARTCHAR C420
ENCODING 420
SWIDTH 560 0
DWIDTH 14 0
BBX 15 24 0 -2
BITMAP
8000
6000
1F80
0060
0010
0008
FFFE
0800
0800
0800
0800
0870
0870
0870
0810
0830
0820
0860
08E0
4990
2710
1010
0820
07C0
ENDCHAR
STARTCHAR C421
ENCODING 421
SWIDTH 480 0
DWIDTH 12 0
BBX 14 25 -1 -3
BITMAP
8000
6000
1F80
0060
0010
0010
7FFC
1000
1000
1000
1000
10E0
10E0
10E0
1060
1040
10C0
1180
1300
0E60
01A0
0320
00A0
0060
0020
ENDCHAR
STARTCHAR C422
ENCODING 422
SWIDTH 880 0
DWIDTH 22 0
BBX 23 15 0 1
BITMAP
FFFFFE
040200
040200
040200
058200
064220
204250
204290
10C108
0F4008
002008
002008
001010
000820
0007C0
ENDCHAR
STARTCHAR C423
ENCODING 423
SWIDTH 760 0
DWIDTH 19 0
BBX 19 22 1 0
BITMAP
080000
060000
01F800
000600
000100
000080
3CFFE0
628000
418000
E18000
E08000
E08000
008700
008700
008700
008100
008300
008200
008600
008C00
009800
007000
ENDCHAR
STARTCHAR C424
ENCODING 424
SWIDTH 600 0
DWIDTH 15 0
BBX 11 23 2 1
BITMAP
0600
0400
0400
0400
0400
0400
0400
7C00
C600
8200
C300
C280
0240
0240
0620
0420
0C20
1820
3060
6040
40C0
2180
1F00
ENDCHAR
STARTCHAR C425
ENCODING 425
SWIDTH 640 0
DWIDTH 16 0
BBX 14 15 1 1
BITMAP
1E20
3170
B8C8
B8C8
B808
8018
40F0
40F0
40F0
20E8
2004
1004
080C
0638
01E0
ENDCHAR
STARTCHAR C426
ENCODING 426
SWIDTH 520 0
DWIDTH 13 0
BBX 12 16 2 0
BITMAP
3CF0
6280
C180
E080
E080
E080
0080
0080
3C80
6280
C180
E080
E080
E080
0080
0080
ENDCHAR
STARTCHAR C427
ENCODING 427
SWIDTH 640 0
DWIDTH 16 0
BBX 15 16 2 0
BITMAP
3CFE
6290
C190
E190
E090
E090
0090
0090
0090
0390
07D0
07B0
0330
0010
0010
0010
ENDCHAR
STARTCHAR C428
ENCODING 428
SWIDTH 560 0
DWIDTH 14 0
BBX 15 15 0 1
BITMAP
FFFE
0000
03E0
0610
0C10
2C10
2C30
2DE0
21E0
21F0
1010
1010
0830
0460
03C0
ENDCHAR
STARTCHAR C429
ENCODING 429
SWIDTH 560 0
DWIDTH 14 0
BBX 15 18 0 -2
BITMAP
FFFE
0000
07E0
0C10
2C10
3C30
2DE0
21E0
11F0
1010
0810
0430
03F0
00D0
0310
0090
0070
0030
ENDCHAR
STARTCHAR C430
ENCODING 430
SWIDTH 600 0
DWIDTH 15 0
BBX 14 16 2 0
BITMAP
603C
9620
D520
C920
C120
0220
0420
1820
7020
0C20
0320
00A0
0060
0020
0020
0020
ENDCHAR
STARTCHAR C431
ENCODING 431
SWIDTH 560 0
DWIDTH 14 0
BBX 15 16 0 0
BITMAP
FFFE
0000
41E0
23D0
23C8
1188
0808
0408
0310
00F0
0F90
1E50
1E30
0C30
0010
0010
ENDCHAR
STARTCHAR C432
ENCODING 432
SWIDTH 600 0
DWIDTH 15 0
BBX 16 16 0 0
BITMAP
FFFF
0000
40F0
21E8
21E4
10C4
0804
0404
0308
00F0
0070
0190
0310
00D0
0030
0010
ENDCHAR
STARTCHAR C433
ENCODING 433
SWIDTH 720 0
DWIDTH 18 0
BBX 19 16 0 0
BITMAP
FFFFE0
000100
41E100
21D100
21C900
11C900
080900
040900
031100
00E100
00F100
00ED00
00E300
00E100
000100
000100
ENDCHAR
STARTCHAR C434
ENCODING 434
SWIDTH 640 0
DWIDTH 16 0
BBX 17 16 0 0
BITMAP
FFFF80
000000
00F800
018400
030400
020400
23C400
23C400
23C400
21C400
200400
200400
100400
0C0400
03FC00
000400
ENDCHAR
STARTCHAR C435
ENCODING 435
SWIDTH 800 0
DWIDTH 20 0
BBX 21 16 0 0
BITMAP
FFFFF8
000000
00F800
018440
0305E0
0205D0
2385D0
23C410
23C420
2187C0
200400
200400
100400
0C0400
03FC00
000400
ENDCHAR
STARTCHAR C436
ENCODING 436
SWIDTH 880 0
DWIDTH 22 0
BBX 23 17 0 -1
BITMAP
FFDF1E
203090
206050
204030
207810
218410
228210
248210
288610
308010
208010
008010
008010
008010
008010
008010
000010
ENDCHAR
STARTCHAR C437
ENCODING 437
SWIDTH 840 0
DWIDTH 21 0
BBX 22 16 0 0
BITMAP
FFFFFC
202020
206020
204020
204020
21C320
22BE20
248C20
289820
30B820
210620
010120
0100A0
010060
010020
008020
ENDCHAR
STARTCHAR C438
ENCODING 438
SWIDTH 560 0
DWIDTH 14 0
BBX 15 16 0 0
BITMAP
FFFE
4000
4000
4200
4E00
5210
6230
4260
02A0
0320
0220
0220
0020
0020
0020
0020
ENDCHAR
STARTCHAR C439
ENCODING 439
SWIDTH 600 0
DWIDTH 15 0
BBX 16 16 0 0
BITMAP
FFFF
2000
2000
2000
2080
2340
2C40
3078
21C8
0648
1848
0648
0148
00C8
0048
0048
ENDCHAR
STARTCHAR C440
ENCODING 440
SWIDTH 520 0
DWIDTH 13 0
BBX 14 16 0 0
BITMAP
FFFC
2000
2000
2000
2040
21A0
2620
3820
20E0
0320
0C20
0320
00A0
0060
0020
0020
ENDCHAR
STARTCHAR C441
ENCODING 441
SWIDTH 600 0
DWIDTH 15 0
BBX 16 16 0 0
BITMAP
FFFF
2000
2000
2180
2700
2900
3100
2100
4720
2730
2768
17C8
1008
0818
0430
03E0
ENDCHAR
STARTCHAR C442
ENCODING 442
SWIDTH 600 0
DWIDTH 15 0
BBX 16 16 0 0
BITMAP
FFFF
2000
2000
2180
2700
2900
3100
2100
0730
2728
27E8
2788
2008
1008
0FF8
0008
ENDCHAR
STARTCHAR C443
ENCODING 443
SWIDTH 560 0
DWIDTH 14 0
BBX 15 16 0 0
BITMAP
FFFE
4010
4010
4010
4190
4690
4890
5090
6110
4110
0110
0390
07D0
07B0
0310
0010
ENDCHAR
STARTCHAR C444
ENCODING 444
SWIDTH 480 0
DWIDTH 12 0
BBX 12 18 1 -2
BITMAP
18F0
3880
3980
1E80
1880
2080
7080
0C80
0280
0180
0080
3C80
F280
F180
F180
0080
0080
0080
ENDCHAR
STARTCHAR C445
ENCODING 445
SWIDTH 920 0
DWIDTH 23 0
BBX 22 16 2 0
BITMAP
307FFC
704020
704020
41C060
3E41A0
184620
205820
406020
C07020
304820
084620
044120
0240A0
014060
00C020
00C020
ENDCHAR
STARTCHAR C446
ENCODING 446
SWIDTH 760 0
DWIDTH 19 0
BBX 20 22 0 0
BITMAP
040000
030000
00FC00
000300
000080
000040
FFFFF0
004000
004000
004000
3E4000
794000
78C380
30C380
004380
004080
004180
004100
004300
004600
004C00
003800
ENDCHAR
STARTCHAR C447
ENCODING 447
SWIDTH 640 0
DWIDTH 16 0
BBX 17 15 0 1
BITMAP
FFFF80
018000
018000
7D8000
738000
718800
019400
01E400
208200
200200
200200
100200
080400
061800
01E000
ENDCHAR
STARTCHAR C448
ENCODING 448
SWIDTH 600 0
DWIDTH 15 0
BBX 16 16 0 0
BITMAP
FFFF
0008
0008
0008
1E08
5F08
5E98
2070
20F0
10F8
10F4
0804
0804
0404
0308
00F0
ENDCHAR
STARTCHAR C449
ENCODING 449
SWIDTH 600 0
DWIDTH 15 0
BBX 16 18 0 -2
BITMAP
FFFF
0010
0010
3810
3C10
3B30
38E0
01F0
0708
1E08
1678
16F0
10F0
0868
0808
0408
0218
01F0
ENDCHAR
STARTCHAR C450
ENCODING 450
SWIDTH 600 0
DWIDTH 15 0
BBX 16 18 0 -2
BITMAP
FFFF
0008
0008
0E08
1F08
5E98
2C70
20F0
10F8
10F4
0804
0404
0308
00F8
0078
00C8
0028
0018
ENDCHAR
STARTCHAR C451
ENCODING 451
SWIDTH 600 0
DWIDTH 15 0
BBX 16 18 0 -2
BITMAP
FFFF
0008
0008
0E08
1F08
1E98
0CF0
0188
0308
2208
2388
2388
2008
2008
1008
0FF8
0008
0008
ENDCHAR
STARTCHAR C452
ENCODING 452
SWIDTH 600 0
DWIDTH 15 0
BBX 16 18 0 -2
BITMAP
FFFF
0010
0010
3810
3C10
3B30
39F0
0388
0788
0708
0018
0430
03E0
0180
0060
0010
000C
0002
ENDCHAR
STARTCHAR C453
ENCODING 453
SWIDTH 680 0
DWIDTH 17 0
BBX 18 16 0 0
BITMAP
FFFFC0
008000
008000
008000
7C8100
728300
718D00
719200
00A200
00C200
008200
000200
000200
000200
000200
000200
ENDCHAR
STARTCHAR C454
ENCODING 454
SWIDTH 600 0
DWIDTH 15 0
BBX 16 16 0 0
BITMAP
FFFF
0040
0040
1E40
7940
78C0
78C0
0078
00C8
0348
0448
0C48
0348
00C8
0048
0048
ENDCHAR
STARTCHAR C455
ENCODING 455
SWIDTH 520 0
DWIDTH 13 0
BBX 14 16 0 0
BITMAP
FFFC
0020
0020
0020
3E20
79A0
7860
3020
0020
0020
3E20
79A0
7860
3020
0020
0020
ENDCHAR
STARTCHAR C456
ENCODING 456
SWIDTH 560 0
DWIDTH 14 0
BBX 15 16 0 0
BITMAP
FFFE
0010
0010
0010
3F10
78D0
7830
3010
0010
0070
0190
0310
0090
0050
0030
0010
ENDCHAR
STARTCHAR C457
ENCODING 457
SWIDTH 640 0
DWIDTH 16 0
BBX 17 16 0 0
BITMAP
FFFF80
002400
002400
3E2400
79A400
786400
302400
002400
002400
002400
01E400
01F400
01EC00
000C00
000400
000400
ENDCHAR
STARTCHAR C458
ENCODING 458
SWIDTH 680 0
DWIDTH 17 0
BBX 18 16 0 0
BITMAP
FFFFC0
1C0200
020200
010200
008200
1E8200
714200
70FA00
00C600
018200
130200
0E0200
000200
000200
000200
000200
ENDCHAR
STARTCHAR C459
ENCODING 459
SWIDTH 800 0
DWIDTH 20 0
BBX 20 22 1 0
BITMAP
080000
060000
01FC00
000300
000080
000040
00FFF0
3C8000
428000
E38000
168000
1C8000
308380
008380
008380
008080
008180
008100
008300
008600
008C00
007800
ENDCHAR
STARTCHAR C460
ENCODING 460
SWIDTH 640 0
DWIDTH 16 0
BBX 16 16 1 0
BITMAP
001F
1F10
60D0
11F0
0B10
8E10
9C10
5010
41F0
21F8
21E4
1004
0804
0404
0308
00F0
ENDCHAR
STARTCHAR C461
ENCODING 461
SWIDTH 600 0
DWIDTH 15 0
BBX 15 16 1 0
BITMAP
0F1E
3090
4050
B1F0
0B10
0E10
0C10
1810
0010
0010
0F90
1E50
1E30
0C30
0010
0010
ENDCHAR
STARTCHAR C462
ENCODING 462
SWIDTH 600 0
DWIDTH 15 0
BBX 15 17 1 -1
BITMAP
001E
1F10
60D0
91F0
0B10
0E10
1C10
1010
0010
1F10
2090
E0D0
11B0
0F10
0C10
1810
0010
ENDCHAR
STARTCHAR C463
ENCODING 463
SWIDTH 600 0
DWIDTH 15 0
BBX 15 16 1 0
BITMAP
0F1E
3090
4050
B1F0
0B10
0E10
0C10
1810
0010
0ED0
1130
2110
3810
3810
3810
0010
ENDCHAR
STARTCHAR C464
ENCODING 464
SWIDTH 680 0
DWIDTH 17 0
BBX 18 16 0 0
BITMAP
FFFFC0
1C0200
020200
010200
1C8200
668200
1D4200
187A00
10C600
018200
130200
0E0200
000200
000200
000200
000200
ENDCHAR
STARTCHAR C465
ENCODING 465
SWIDTH 680 0
DWIDTH 17 0
BBX 18 17 0 -1
BITMAP
FFFFC0
180000
040000
021C00
031200
061100
041100
0E1100
019700
005700
003000
1ED000
213000
391000
381000
381000
001000
ENDCHAR
STARTCHAR C466
ENCODING 466
SWIDTH 680 0
DWIDTH 17 0
BBX 18 14 0 2
BITMAP
FFFFC0
020000
060000
1B0000
32FF00
0A0300
464200
42A200
432200
201200
201200
101200
0C2200
03C200
ENDCHAR
STARTCHAR C467
ENCODING 467
SWIDTH 640 0
DWIDTH 16 0
BBX 17 16 0 0
BITMAP
FFFF80
010000
010000
070000
190200
610600
191A00
052400
034400
018400
010400
000400
000400
000400
000400
000400
ENDCHAR
STARTCHAR C468
ENCODING 468
SWIDTH 640 0
DWIDTH 16 0
BBX 17 16 0 0
BITMAP
FFFF80
002000
00E000
032000
0C2000
302000
207E00
11A400
0E2400
082400
182400
062400
012400
00A400
006400
002400
ENDCHAR
STARTCHAR C469
ENCODING 469
SWIDTH 520 0
DWIDTH 13 0
BBX 14 16 0 0
BITMAP
FFFC
0020
00E0
0320
0C20
3020
2060
11A0
0E20
1820
1820
0620
0120
00A0
0060
0020
ENDCHAR
STARTCHAR C470
ENCODING 470
SWIDTH 520 0
DWIDTH 13 0
BBX 14 16 0 0
BITMAP
FFFC
0020
0060
01A0
0E20
1820
0620
0120
00E0
0020
3DE0
4360
7820
7820
3820
0020
ENDCHAR
STARTCHAR C471
ENCODING 471
SWIDTH 680 0
DWIDTH 17 0
BBX 18 16 0 0
BITMAP
FFFFC0
000000
000000
000000
000C00
031A00
27B200
47E200
43C200
400200
400200
200200
100200
0FFA00
000600
000200
ENDCHAR
STARTCHAR C472
ENCODING 472
SWIDTH 600 0
DWIDTH 15 0
BBX 16 17 0 -1
BITMAP
FFFF
0000
4700
2730
2768
13C8
1008
0818
0438
03E8
0008
1E68
2198
3C88
3C08
1C08
0008
ENDCHAR
STARTCHAR C473
ENCODING 473
SWIDTH 560 0
DWIDTH 14 0
BBX 15 16 0 0
BITMAP
FFFE
1010
0808
3808
7808
7E08
3118
00F0
0010
0010
1F10
3CD0
3C30
1810
0010
0010
ENDCHAR
STARTCHAR C474
ENCODING 474
SWIDTH 1000 0
DWIDTH 25 0
BBX 26 16 0 0
BITMAP
FFC3E3C0
104C1200
10300A00
78383E00
7C646600
7BC2C200
00038200
00030200
00060200
00000200
00000200
00000200
00000200
00000200
00000200
00000200
ENDCHAR
STARTCHAR C475
ENCODING 475
SWIDTH 960 0
DWIDTH 24 0
BBX 25 16 0 0
BITMAP
FFFFFF80
10200000
08100000
78103800
7C102400
7A302200
01E82200
000C2200
00182E00
00102E00
00302E00
00382000
00062000
00012000
0000E000
00006000
ENDCHAR
STARTCHAR C476
ENCODING 476
SWIDTH 560 0
DWIDTH 14 0
BBX 15 16 0 0
BITMAP
FFFE
1010
0808
3808
7808
7E08
3118
00F0
0070
0190
0610
0E10
0190
0050
0030
0010
ENDCHAR
STARTCHAR C477
ENCODING 477
SWIDTH 640 0
DWIDTH 16 0
BBX 17 16 0 0
BITMAP
FFFF80
080800
080400
3C0400
3C0400
3A0400
398C00
037800
279800
27F800
23C400
100400
100400
080C00
061800
01F000
ENDCHAR
STARTCHAR C478
ENCODING 478
SWIDTH 600 0
DWIDTH 15 0
BBX 16 16 0 0
BITMAP
FFFF
1010
0808
3808
3E08
3918
38F0
0030
2768
27C8
2788
2008
2008
1008
0FF8
0008
ENDCHAR
STARTCHAR C479
ENCODING 479
SWIDTH 680 0
DWIDTH 17 0
BBX 18 16 0 0
BITMAP
FFFFC0
101200
080A00
380A00
780A00
7E0A00
311A00
00F200
001200
007200
007A00
007600
007600
000200
000200
000200
ENDCHAR
STARTCHAR C480
ENCODING 480
SWIDTH 560 0
DWIDTH 14 0
BBX 15 16 0 0
BITMAP
FFFE
1010
0808
3808
7808
7E08
3118
00F0
0010
0ED0
11B0
2110
3810
3810
3810
0010
ENDCHAR
STARTCHAR C481
ENCODING 481
SWIDTH 640 0
DWIDTH 16 0
BBX 17 16 0 0
BITMAP
FFFF80
002000
002000
1DA000
236000
426000
782000
787800
39A400
062200
082200
062E00
012E00
00AE00
006000
002000
ENDCHAR
STARTCHAR C482
ENCODING 482
SWIDTH 600 0
DWIDTH 15 0
BBX 16 16 0 0
BITMAP
FFFF
0008
0008
1E68
2198
4088
7808
3808
3FC8
0C28
1818
1E08
0108
0108
0108
0308
ENDCHAR
STARTCHAR C483
ENCODING 483
SWIDTH 600 0
DWIDTH 15 0
BBX 16 18 0 -2
BITMAP
FFFF
0008
0008
1EE8
2118
7818
7808
3808
07D8
2C38
2E14
213C
233C
1238
103C
0804
060C
01F8
ENDCHAR
STARTCHAR C484
ENCODING 484
SWIDTH 800 0
DWIDTH 20 0
BBX 21 22 0 0
BITMAP
040000
030000
00FE00
000180
000040
000020
FFFFF8
004000
004000
39C000
464000
424000
7841C0
7841C0
3841C0
004040
0040C0
004080
004180
004300
004600
003C00
ENDCHAR
STARTCHAR C485
ENCODING 485
SWIDTH 720 0
DWIDTH 18 0
BBX 19 15 0 1
BITMAP
FFFFE0
002000
3DA000
426000
7A2000
782200
382700
002900
083080
080080
040080
040080
020100
018600
007800
ENDCHAR
STARTCHAR C486
ENCODING 486
SWIDTH 600 0
DWIDTH 15 0
BBX 16 16 0 0
BITMAP
FFFF
0008
0E08
1168
2098
3C08
3C08
1C08
0008
0F88
3068
48F8
0588
0708
0C08
0808
ENDCHAR
STARTCHAR C487
ENCODING 487
SWIDTH 600 0
DWIDTH 15 0
BBX 16 16 0 0
BITMAP
FFFF
0008
0008
0008
1E68
2198
4088
7808
3808
3838
00C8
0308
00C8
0028
0018
0008
ENDCHAR
STARTCHAR C488
ENCODING 488
SWIDTH 680 0
DWIDTH 17 0
BBX 18 16 0 0
BITMAP
FFFFC0
001200
001200
1CD200
233200
413200
781200
381200
381200
001200
007200
007A00
007600
007200
000200
000200
ENDCHAR
STARTCHAR C489
ENCODING 489
SWIDTH 600 0
DWIDTH 15 0
BBX 16 16 0 0
BITMAP
FFFF
0008
0008
1E68
2198
4088
7808
3808
3808
1E68
2198
4088
7808
3808
3808
0008
ENDCHAR
STARTCHAR C490
ENCODING 490
SWIDTH 840 0
DWIDTH 21 0
BBX 22 16 0 0
BITMAP
E01FFC
339000
0E5000
1F3000
3F9800
3F9600
3391C0
001020
001020
001020
001060
001040
0010C0
001180
001300
000E00
ENDCHAR
STARTCHAR C491
ENCODING 491
SWIDTH 880 0
DWIDTH 22 0
BBX 23 16 0 0
BITMAP
E00FFE
33C800
0E2800
1F1C00
3F8BE0
3F8990
398910
000B10
000E30
0000E0
000780
000200
000180
000040
000020
000010
ENDCHAR
STARTCHAR C492
ENCODING 492
SWIDTH 600 0
DWIDTH 15 0
BBX 16 16 0 0
BITMAP
E00F
39C8
0F38
1F88
3FC8
3FC8
39C8
0008
0008
0008
07C8
0F28
0F18
0618
0008
0008
ENDCHAR
STARTCHAR C493
ENCODING 493
SWIDTH 720 0
DWIDTH 18 0
BBX 19 16 0 0
BITMAP
E00FE0
33C900
0E2900
1F1900
3F8900
3F8900
398900
000900
000900
000900
003900
007900
007D00
003300
000100
000100
ENDCHAR
STARTCHAR C494
ENCODING 494
SWIDTH 600 0
DWIDTH 15 0
BBX 16 16 0 0
BITMAP
E00F
39C8
0F38
1F88
3FC8
3FC8
39C8
0008
0008
0768
0898
1088
1C08
1C08
1C08
0008
ENDCHAR
STARTCHAR C495
ENCODING 495
SWIDTH 600 0
DWIDTH 15 0
BBX 16 16 0 0
BITMAP
E00F
39C8
0F38
1F88
3FC8
3FC8
39C8
0008
0008
0038
00C8
0308
00C8
0028
0018
0008
ENDCHAR
STARTCHAR C496
ENCODING 496
SWIDTH 600 0
DWIDTH 15 0
BBX 16 16 0 0
BITMAP
FFFF
0380
0C40
1C40
2240
21C0
23E0
1E50
0848
3044
305C
0C5C
0240
0140
00C0
00C0
ENDCHAR
STARTCHAR C497
ENCODING 497
SWIDTH 800 0
DWIDTH 20 0
BBX 21 18 0 -2
BITMAP
FFFFF8
038000
0C4000
144000
224000
21F800
23C400
1D8400
0107C0
11C4E0
11C5E0
11C5E0
1004C0
100400
080400
07FC00
000400
000400
ENDCHAR
STARTCHAR C498
ENCODING 498
SWIDTH 520 0
DWIDTH 13 0
BBX 14 23 0 -1
BITMAP
8000
6000
1F80
0060
0010
0010
FFFC
0780
1840
2840
4440
4240
4080
4700
3C00
18E0
30E0
20E0
2020
2060
2040
10C0
0F80
ENDCHAR
STARTCHAR C499
ENCODING 499
SWIDTH 600 0
DWIDTH 15 0
BBX 16 23 0 1
BITMAP
0180
0100
0100
0100
0100
0100
0100
0100
FFFF
0780
08C0
18A0
2490
2590
2188
2308
1F08
0608
0C18
1810
1030
0860
07C0
ENDCHAR
STARTCHAR C500
ENCODING 500
SWIDTH 800 0
DWIDTH 20 0
BBX 19 16 0 0
BITMAP
FFF000
601380
101440
0C1820
021020
0711A0
0C91C0
1871A0
301020
301820
0C1440
031380
009000
005000
003000
003000
ENDCHAR
STARTCHAR C501
ENCODING 501
SWIDTH 880 0
DWIDTH 22 0
BBX 23 16 0 0
BITMAP
FE0F1E
0F3090
10C050
28E0F0
2511B0
220B10
1C0E10
001810
001010
000010
000010
000010
000010
000010
000010
000010
ENDCHAR
STARTCHAR C502
ENCODING 502
SWIDTH 800 0
DWIDTH 20 0
BBX 21 16 0 0
BITMAP
FFFFF8
070000
188000
288380
448240
438220
464220
386220
00C2E0
0082E0
0182E0
01C200
003200
000A00
000600
000200
ENDCHAR
STARTCHAR C503
ENCODING 503
SWIDTH 600 0
DWIDTH 15 0
BBX 16 16 0 0
BITMAP
FFFF
0388
0C48
1C48
2248
2188
2308
1C88
0088
0788
0748
0728
0718
0018
0008
0008
ENDCHAR
STARTCHAR C504
ENCODING 504
SWIDTH 760 0
DWIDTH 19 0
BBX 20 16 0 0
BITMAP
FFFFF0
030400
030200
028200
066600
3C1C00
000400
001F00
006480
008440
018440
0065C0
0015C0
000DC0
000400
000400
ENDCHAR
STARTCHAR C505
ENCODING 505
SWIDTH 840 0
DWIDTH 21 0
BBX 22 18 0 -2
BITMAP
FFFFFC
020400
030400
030400
068C00
3C7800
007C00
00C200
0183E0
09E270
11E2F0
10E2F0
100260
100200
080200
07FE00
000200
000200
ENDCHAR
STARTCHAR C506
ENCODING 506
SWIDTH 760 0
DWIDTH 19 0
BBX 20 20 0 -4
BITMAP
FFFFF0
030400
030200
028200
066600
3C1C00
000400
001F00
006480
008440
0185C0
0065C0
0015C0
07BC00
084C00
0E4400
0E0400
0E0400
000400
000400
ENDCHAR
STARTCHAR C507
ENCODING 507
SWIDTH 800 0
DWIDTH 20 0
BBX 21 16 0 0
BITMAP
FFE078
042040
061040
061040
0D3040
38E040
000840
001440
00D240
00E240
000440
001840
003840
000640
000140
0000C0
ENDCHAR
STARTCHAR C508
ENCODING 508
SWIDTH 840 0
DWIDTH 21 0
BBX 22 22 0 0
BITMAP
060000
01C000
003E00
0001C0
000020
000010
FFFFFC
301000
081000
041000
041000
03D000
0330E0
0630E0
4C10E0
381020
001060
001040
0010C0
001180
001300
000E00
ENDCHAR
STARTCHAR C509
ENCODING 509
SWIDTH 680 0
DWIDTH 17 0
BBX 18 16 0 0
BITMAP
FFFFC0
010200
018100
038100
024100
662300
3C3E00
207C00
107A00
083100
080100
040100
020100
010100
00C200
003C00
ENDCHAR
STARTCHAR C510
ENCODING 510
SWIDTH 600 0
DWIDTH 15 0
BBX 16 18 0 -2
BITMAP
FFFF
0410
0608
0608
0D08
4898
3870
01F0
0708
1E08
1678
16F0
10F0
0868
0808
0408
0218
01F0
ENDCHAR
STARTCHAR C511
ENCODING 511
SWIDTH 640 0
DWIDTH 16 0
BBX 17 18 0 -2
BITMAP
FFFF80
020800
030400
030400
068C00
3C7800
007800
00C400
018400
21C400
21C400
21C400
200400
200400
100400
0FFC00
000400
000400
ENDCHAR
ENDFONT
